<svg xmlns="http://www.w3.org/2000/svg" viewBox="0 0 24 24" width="96" height="96">
  <!-- NÂNG CAO (cockpit, ô tile_adv) — cờ-lê nét đầu mở, cán tô: công cụ = cài đặt sâu. -->
  <style>:root{--ink:#ffffff;--main:#eaf0f8;--light:#ffffff;--deep:#b9c4d4}</style>
  <path d="M14.2,3.6 A5.2,5.2 0 0 0 9.6,9.8 L3.8,15.6 A1.8,1.8 0 0 0 6.4,18.2 L12.2,12.4 A5.2,5.2 0 0 0 18.4,7.8 L15.6,10.6 L13.4,8.4 L16.2,5.6 Z" data-layer="main" fill="none" stroke="var(--main)" stroke-width="1.8" stroke-linecap="round" stroke-linejoin="round"/>
  <path d="M14.2,3.6 A5.2,5.2 0 0 0 9.6,9.8 L3.8,15.6 A1.8,1.8 0 0 0 6.4,18.2 L12.2,12.4 A5.2,5.2 0 0 0 18.4,7.8 L15.6,10.6 L13.4,8.4 L16.2,5.6 Z" data-layer="bg" fill="var(--main)" stroke="none" data-min="32" opacity="0.16"/>
</svg>
