<svg xmlns="http://www.w3.org/2000/svg" viewBox="0 0 24 24" width="96" height="96">
  <!-- XĂNG (`fuel_pct` · bình xăng) — vòi bơm: thân trụ có ô kính tô chuyển sắc, vòi cong bên phải. Trên xe hybrid, xăng và pin là hai bình KHÁC nhau nên không dùng chung hình pin. -->
  <style>:root{--ink:#ffffff;--main:#34d399;--light:#8ff0c4;--deep:#0f8f63}</style>
  <path d="M5.8,3.4 L11.8,3.4 A2.2,2.2 0 0 1 14,5.6 L14,18.4 A2.2,2.2 0 0 1 11.8,20.6 L5.8,20.6 A2.2,2.2 0 0 1 3.6,18.4 L3.6,5.6 A2.2,2.2 0 0 1 5.8,3.4 Z" data-layer="main" fill="none" stroke="var(--main)" stroke-width="1.8" stroke-linecap="round" stroke-linejoin="round"/>
  <path d="M7,5.8 L10.6,5.8 A1.2,1.2 0 0 1 11.8,7 L11.8,9.2 A1.2,1.2 0 0 1 10.6,10.4 L7,10.4 A1.2,1.2 0 0 1 5.8,9.2 L5.8,7 A1.2,1.2 0 0 1 7,5.8 Z" data-layer="main" fill="var(--light)" stroke="none" data-fx="grad"/>
  <path d="M14,8.4 L17,8.4 L19.6,11 L19.6,17.2 A1.6,1.6 0 0 1 16.4,17.2 L16.4,13.4 L14,13.4" data-layer="sub" fill="none" stroke="var(--ink)" stroke-width="1.2" stroke-linecap="round" stroke-linejoin="round" opacity="0.38"/>
  <path d="M3.6,20.6 L14,20.6" data-layer="sub" fill="none" stroke="var(--ink)" stroke-width="1.2" stroke-linecap="round" stroke-linejoin="round" opacity="0.38"/>
</svg>
