<svg xmlns="http://www.w3.org/2000/svg" viewBox="0 0 24 24" width="96" height="96">
  <!-- NHIỆT ĐỘ (`cabin_temp` · nút Nhiệt độ) — nhiệt kế đứng, cột thuỷ ngân tô chuyển sắc, ba vạch chia bên trái là ngữ cảnh mờ. -->
  <style>:root{--ink:#ffffff;--main:#29d3ee;--light:#8ae8f7;--deep:#0d8aa3}</style>
  <path d="M11.4,5 A1.8,1.8 0 0 1 15,5 L15,15 A3,3 0 1 1 11.4,15 Z" data-layer="main" fill="none" stroke="var(--main)" stroke-width="1.8" stroke-linecap="round" stroke-linejoin="round"/>
  <path d="M13.2,10.4 L13.2,10.4 A1.3,1.3 0 0 1 14.5,11.7 L14.5,16.1 A1.3,1.3 0 0 1 13.2,17.4 L13.2,17.4 A1.3,1.3 0 0 1 11.9,16.1 L11.9,11.7 A1.3,1.3 0 0 1 13.2,10.4 Z M11.2,17.4 A2,2 0 1 1 15.2,17.4 A2,2 0 1 1 11.2,17.4 Z" data-layer="main" fill="var(--light)" stroke="none" data-fx="grad"/>
  <path d="M6.2,6.4 L9,6.4 M6.2,9.6 L9,9.6 M6.2,12.8 L9,12.8" data-layer="sub" fill="none" stroke="var(--ink)" stroke-width="1.2" stroke-linecap="round" stroke-linejoin="round" opacity="0.38"/>
</svg>
